<svg xmlns="http://www.w3.org/2000/svg" viewBox="0 0 196 34"><path d="M8.5 1.8c1 0 1.9.1 2.8.4.9.3 1.5.6 1.9.8l.6.4 1-1.4h.2l.6 6.7h-.2c-.2-1.7-.9-3.2-2.1-4.7-1.2-1.3-2.8-2-4.8-2-1.4 0-2.4.4-3.2 1.2C4.5 4 4.1 5 4.1 6.1c0 1.2.4 2.2 1.3 3 .9.8 1.9 1.5 3.1 2 1.2.5 2.4 1.1 3.6 1.6 1.2.6 2.2 1.4 3.1 2.5.9 1.1 1.3 2.4 1.3 3.9 0 2.2-.8 3.9-2.4 5.1-1.6 1.2-3.5 1.8-5.8 1.8-1.2.1-2.3 0-3.3-.4-1-.3-1.8-.6-2.2-1l-.7-.5L1 25.6H.8l-.3-7.3h.2c.2 2.1.9 3.9 2.2 5.4 1.3 1.5 3.1 2.2 5.3 2.2 1.8 0 3.1-.5 4-1.4.9-.9 1.4-2.1 1.4-3.7 0-1.1-.3-2.1-.9-2.9-.6-.8-1.3-1.4-2.2-1.9-.9-.4-1.8-.9-2.9-1.4-1-.5-2-1-2.9-1.5-.9-.5-1.6-1.2-2.2-2.1-.5-.7-.8-1.8-.8-3 0-1.8.6-3.3 1.9-4.5 1.3-1.1 2.9-1.7 4.9-1.7z"/><path d="M26.1 8.7c2.1 0 3.9.8 5.1 2.4 1.3 1.6 1.9 3.7 1.9 6.3 0 2.5-.7 4.6-2.2 6.3-1.5 1.7-3.4 2.5-5.6 2.5-1.8 0-3.3-.8-4.5-2.4v6.7c0 1.4.1 2.4.4 2.7.3.4 1 .6 2.3.6v.2h-8.1v-.2c1.1-.1 1.8-.3 2.1-.7.3-.4.4-1.3.4-2.6V13.1c0-1.2-.2-1.9-.5-2.3-.3-.4-1-.5-2.1-.5V10c.7 0 1.4-.2 2.4-.4s1.7-.4 2.3-.6l.9-.3v2.9c1.3-1.9 3-2.9 5.2-2.9zM25 25.8c1.8 0 3.1-.7 3.8-2.2.7-1.5 1.1-3.6 1.1-6.4 0-2.6-.3-4.6-1-6-.6-1.4-1.7-2.2-3.3-2.2-1.3 0-2.4.5-3.3 1.4-.9 1-1.3 2.5-1.3 4.5v5.7c0 1.8.4 3.1 1.1 3.9.7.9 1.6 1.3 2.9 1.3zM49.2 23.8h.2c0 .1 0 .2-.1.2 0 .1-.1.3-.3.5-.2.3-.3.5-.5.7-.2.2-.5.4-.8.5-.4.2-.8.2-1.2.2-1.8 0-2.8-1.1-2.9-3.2-.5 1.1-1.2 1.9-2.2 2.4-1 .6-2.1.8-3.3.8-1.6 0-2.8-.3-3.7-1-.9-.7-1.3-1.6-1.3-2.8 0-1 .4-1.8 1.2-2.4.8-.5 2.1-1.1 3.8-1.6l5.4-1.6v-2.7c0-1.8-.3-3.1-.8-3.9-.5-.5-1.4-.9-2.8-.9-1.8 0-2.9 1-3.2 2.9-.1.4-.1.7-.2.9 0 .2-.1.4-.2.7-.1.3-.3.5-.5.6-.2.1-.4.2-.7.2-.4 0-.7-.1-1-.4-.2-.3-.4-.6-.4-1 0-1 .5-2 1.6-2.8 1.1-.8 2.8-1.3 5.1-1.3 4 0 6 1.6 6 4.8v9.6c0 .7.1 1.2.3 1.5.2.3.5.4 1 .4.3 0 .6-.1.9-.3.2-.2.4-.4.5-.6l.1-.4zm-9.9 1.7c1.2 0 2.3-.4 3-1.3.8-.8 1.2-1.9 1.2-3.3V17l-4 1.2c-2.2.7-3.3 2-3.3 4.1 0 2.1 1 3.2 3.1 3.2z"/><path d="M53.7 8.6v4.6c.4-1.3.9-2.4 1.7-3.3.8-.9 1.7-1.3 2.8-1.3.6 0 1.1.1 1.5.4.4.3.6.7.6 1.2 0 .4-.1.8-.4 1.1-.2.3-.5.4-.9.4-.5 0-1-.3-1.4-1-.4-.7-.9-1-1.4-1-.6 0-1.2.5-1.6 1.6-.5 1-.7 2.5-.7 4.5v6c0 1.5.1 2.5.4 2.9.3.4 1 .6 2.3.7v.2h-8.1v-.2c1.1-.1 1.8-.3 2.1-.7.3-.4.4-1.3.4-2.8V13c0-1.2-.2-2-.5-2.3-.3-.3-1-.5-2.1-.5V10c.7 0 1.4-.2 2.3-.4.9-.2 1.6-.5 2.2-.7l.8-.3z"/><path d="M64.6 5.1v4.1h4.7v.2h-4.7V22c0 2.1.8 3.2 2.3 3.2.5 0 1-.1 1.5-.4.5-.2.8-.5 1-.8l.3-.4.1.2c-.1.2-.3.4-.5.6-.2.2-.7.6-1.5 1s-1.6.6-2.4.6c-2.6 0-3.9-1.3-3.9-4V9.5h-1.8v-.2c.9-.2 1.8-.7 2.7-1.5 1-.8 1.6-1.7 2-2.7h.2z"/><path d="M85.6 23.8h.2c0 .1 0 .2-.1.2 0 .1-.1.3-.3.5-.2.3-.3.5-.5.7-.2.2-.5.4-.8.5-.4.2-.8.2-1.2.2-1.8 0-2.8-1.1-2.9-3.2-.5 1.1-1.2 1.9-2.2 2.4-1 .6-2.1.8-3.3.8-1.6 0-2.8-.3-3.7-1-.9-.7-1.3-1.6-1.3-2.8 0-1 .4-1.8 1.2-2.4.8-.5 2.1-1.1 3.8-1.6l5.4-1.6v-2.7c0-1.8-.3-3.1-.8-3.9-.5-.5-1.5-.9-2.8-.9-1.8 0-2.9 1-3.2 2.9-.1.4-.1.7-.2.9 0 .2-.1.4-.2.7-.1.3-.3.5-.5.6-.2.1-.4.2-.7.2-.4 0-.7-.1-1-.4-.2-.3-.4-.6-.4-1 0-1 .5-2 1.6-2.8 1.1-.8 2.8-1.3 5.1-1.3 4 0 6 1.6 6 4.8v9.6c0 .7.1 1.2.3 1.5.2.3.5.4 1 .4.3 0 .6-.1.9-.3.2-.2.4-.4.5-.6l.1-.4zm-9.9 1.7c1.2 0 2.3-.4 3-1.3.8-.8 1.2-1.9 1.2-3.3V17l-4 1.2c-2.2.7-3.3 2-3.3 4.1 0 2.1 1 3.2 3.1 3.2zM100.1 15h-2.5v6.9c0 1.5.1 2.5.4 2.9.3.4 1 .6 2.3.6v.2h-9v-.2c1.4-.1 2.3-.3 2.6-.6.3-.3.4-1.3.4-2.9V6c0-1.6-.1-2.6-.4-2.9-.3-.3-1.1-.5-2.5-.6v-.2h8.8c2.9 0 5.2.5 6.8 1.6 1.6 1.1 2.4 2.6 2.4 4.5 0 2-.9 3.6-2.6 4.8-1.9 1.2-4.1 1.8-6.7 1.8zM100 2.5h-2.5v12.2h2.3c1.9 0 3.3-.6 4.3-1.7s1.4-2.6 1.4-4.5c.1-4-1.8-6-5.5-6z"/><path d="M113.3 0v21.9c0 1.4.1 2.4.4 2.8.3.4.9.6 2.1.7v.2H108v-.2c1.1-.1 1.7-.3 1.9-.7.2-.4.4-1.3.4-2.8V4.5c0-1.2-.1-2-.4-2.4-.3-.4-1-.5-2.1-.5v-.2c.7 0 1.5-.2 2.4-.4.9-.2 1.6-.5 2.2-.7l.9-.3z"/><path d="M130.8 23.8h.2c0 .1 0 .2-.1.2 0 .1-.1.3-.3.5-.2.3-.3.5-.5.7-.2.2-.5.4-.8.5-.4.2-.8.2-1.2.2-1.8 0-2.8-1.1-2.9-3.2-.5 1.1-1.2 1.9-2.2 2.4-1 .6-2.1.8-3.3.8-1.6 0-2.8-.3-3.7-1-.9-.7-1.3-1.6-1.3-2.8 0-1 .4-1.8 1.2-2.4.8-.5 2.1-1.1 3.8-1.6l5.4-1.6v-2.7c0-1.8-.3-3.1-.8-3.9-.5-.8-1.5-1.2-2.8-1.2-1.8 0-2.9 1-3.2 2.9-.1.4-.1.7-.2.9 0 .2-.1.4-.2.7-.1.3-.3.5-.5.6-.2.1-.4.2-.7.2-.4 0-.7-.1-1-.4-.2-.3-.4-.6-.4-1 0-1 .5-2 1.6-2.8 1.1-.8 2.8-1.3 5.1-1.3 4 0 6 1.6 6 4.8v9.6c0 .7.1 1.2.3 1.5.2.3.5.4 1 .4.3 0 .6-.1.9-.3.2-.2.4-.4.5-.6l.1-.1zm-9.9 1.7c1.2 0 2.3-.4 3-1.3.8-.8 1.2-1.9 1.2-3.3V17l-4 1.2c-2.2.7-3.3 2-3.3 4.1 0 2.1 1.1 3.2 3.1 3.2z"/><path d="M138.6 25.7c1.4 0 2.5-.3 3.4-1 .9-.7 1.5-1.4 1.8-2.3h.2c-.4 1-1.1 1.8-2 2.6s-2.3 1.2-4 1.2c-2.5 0-4.5-.8-5.9-2.3-1.5-1.6-2.2-3.6-2.2-6.2 0-2.5.7-4.6 2.2-6.3 1.5-1.7 3.3-2.6 5.6-2.6 2 0 3.5.6 4.7 1.8 1.1 1.2 1.8 2.9 1.8 5h-10.9c0 .9-.1 1.6-.1 2.1 0 5.3 1.8 8 5.4 8zm-1-16.8c-2.6 0-4 2.1-4.4 6.3h7.4c.2-.6.3-1.3.3-2.1.1-2.8-1-4.2-3.3-4.2zM149.5 8.7c.7 0 1.4.1 2 .3.7.2 1.1.3 1.4.5l.5.2.7-.6h.1l.4 4.3h-.2c-.2-1.2-.7-2.2-1.5-3.2-.8-.9-1.9-1.4-3.3-1.4h-.1c-1 0-1.8.3-2.3.8-.6.5-.8 1.2-.8 2.2 0 .8.3 1.5.9 2.1.6.6 1.4 1.1 2.2 1.5.9.4 1.8.8 2.6 1.3.9.4 1.6 1.1 2.3 1.8.6.8.9 1.7.9 2.8 0 1.5-.5 2.7-1.5 3.6-1 .9-2.3 1.3-3.9 1.3-.7 0-1.5-.1-2.2-.3-.7-.2-1.3-.5-1.7-.7l-.5-.3-.9 1.2h-.1l-.3-5.1h.2c.4 1.4 1 2.6 2 3.6s2.2 1.5 3.6 1.5c1.1 0 2-.3 2.6-.8s.9-1.3.9-2.3c0-.8-.3-1.4-.9-2-.6-.6-1.3-1.1-2.2-1.5-.9-.4-1.7-.8-2.6-1.3-.9-.5-1.6-1.1-2.2-1.9-.6-.8-.9-1.8-.9-2.9 0-1.4.5-2.5 1.4-3.4.9-.9 2.1-1.3 3.4-1.3zM164.2 25.7c1.4 0 2.5-.3 3.4-1 .9-.7 1.5-1.4 1.8-2.3h.2c-.4 1-1 1.8-2 2.6s-2.3 1.2-4 1.2c-2.5 0-4.5-.8-5.9-2.3-1.5-1.6-2.2-3.6-2.2-6.2 0-2.5.7-4.6 2.2-6.3 1.5-1.7 3.3-2.6 5.6-2.6 2 0 3.5.6 4.7 1.8 1.1 1.2 1.8 2.9 1.8 5h-10.9c0 .9-.1 1.6-.1 2.1 0 5.3 1.8 8 5.4 8zm-.9-16.8c-2.6 0-4 2.1-4.4 6.3h7.4c.2-.6.3-1.3.3-2.1.1-2.8-1.1-4.2-3.3-4.2z"/><path d="M185 21.9c0 1.4.1 2.4.4 2.8.3.4 1 .6 2.1.7v.2h-7.7v-.2c1-.1 1.7-.3 1.9-.7.2-.4.4-1.3.4-2.8v-7.3c0-1.9-.3-3.2-.8-4-.5-.8-1.4-1.2-2.6-1.2-1.2 0-2.2.4-3 1.3-.8.8-1.3 2-1.3 3.6V22c0 1.4.1 2.4.4 2.8.3.4.9.6 2.1.7v.2H169v-.2c1-.1 1.7-.3 1.9-.7.2-.4.4-1.3.4-2.8v-8.7c0-1.2-.2-2-.5-2.3-.3-.4-1-.6-2.1-.6v-.2c.7 0 1.4-.2 2.4-.4.9-.2 1.7-.5 2.3-.7l.9-.3v3.3c1.2-2.2 3.1-3.3 5.6-3.3 1.6 0 2.9.4 3.7 1.2.9.8 1.3 2 1.3 3.7v8.2zM190.2 5.1v4.1h4.7v.2h-4.7V22c0 2.1.8 3.2 2.3 3.2.5 0 1-.1 1.5-.4.5-.2.8-.5 1-.8l.3-.4.1.2c-.1.2-.3.4-.5.6-.2.2-.7.6-1.5 1s-1.6.6-2.4.6c-2.6 0-3.9-1.3-3.9-4V9.5h-1.8v-.2c.9-.2 1.8-.7 2.7-1.5.9-.8 1.5-1.7 1.9-2.7h.3z"/></svg>